<svg width="25" height="25" viewBox="0 0 25 25" fill="none" xmlns="http://www.w3.org/2000/svg">
<path fill-rule="evenodd" clip-rule="evenodd" d="M13 2.00082C7.48 2.00037 2.99963 6.48 2.99918 12C2.99873 17.52 7.47836 22.0004 12.9984 22.0008C18.5184 22.0013 22.9987 17.5216 22.9992 12.0016C22.9996 6.48164 18.52 2.00127 13 2.00082ZM11.9996 7.00074L11.9993 11.0007L7.99926 11.0004L7.9991 13.0004L11.9991 13.0007L11.9988 17.0007L13.9988 17.0009L13.9991 13.0009L17.9991 13.0012L17.9993 11.0012L13.9993 11.0009L13.9996 7.0009L11.9996 7.00074ZM4.99918 12.0002C4.99882 16.4102 8.58852 20.0005 12.9985 20.0008C17.4085 20.0012 20.9988 16.4115 20.9992 12.0015C20.9995 7.59148 17.4098 4.00118 12.9998 4.00082C8.58984 4.00046 4.99954 7.59016 4.99918 12.0002Z" fill="#A2A5A8"/>
</svg>
