<svg width="25" height="25" viewBox="0 0 25 25" fill="none" xmlns="http://www.w3.org/2000/svg">
<path fill-rule="evenodd" clip-rule="evenodd" d="M20 3.00131L6 3.00016C4.9 3.00007 3.99993 3.9 3.99984 5L3.99869 19C3.9986 20.1 4.89852 21.0001 5.99852 21.0002L19.9985 21.0013C21.0985 21.0014 21.9986 20.1015 21.9987 19.0015L21.9998 5.00148C21.9999 3.90148 21.1 3.0014 20 3.00131ZM19.9987 19.0013L5.99869 19.0002L5.99984 5.00016L19.9998 5.00131L19.9987 19.0013ZM17.5796 7.58111L18.9895 9.00123L10.9889 17.0006L6.98918 13.0102L8.40929 11.6004L10.9891 14.1706L17.5796 7.58111Z" fill="#505255"/>
</svg>
