<svg width="25" height="25" viewBox="0 0 25 25" fill="none" xmlns="http://www.w3.org/2000/svg">
<path fill-rule="evenodd" clip-rule="evenodd" d="M13 2.00082C7.48 2.00037 2.99963 6.48 2.99918 12C2.99873 17.52 7.47836 22.0004 12.9984 22.0008C18.5184 22.0013 22.9987 17.5216 22.9992 12.0016C22.9996 6.48164 18.52 2.00127 13 2.00082ZM12.9985 20.0008C8.58852 20.0005 4.99882 16.4102 4.99918 12.0002C4.99954 7.59016 8.58984 4.00046 12.9998 4.00082C17.4098 4.00118 20.9995 7.59148 20.9992 12.0015C20.9988 16.4115 17.4085 20.0012 12.9985 20.0008ZM10.999 14.1707L17.5895 7.5812L18.9994 9.00131L10.9988 17.0007L6.9991 13.0003L8.40921 11.5904L10.999 14.1707Z" fill="#5AC17F"/>
</svg>
