<svg width="24" height="24" viewBox="0 0 24 24" fill="none" xmlns="http://www.w3.org/2000/svg">
<path fill-rule="evenodd" clip-rule="evenodd" d="M6 2H14L20 8V20C20 21.1 19.1 22 18 22H5.99C4.89 22 4 21.1 4 20L4.01 4C4.01 2.9 4.9 2 6 2ZM6 4V20H18V9H13V4H6Z" fill="#505255"/>
<path fill-rule="evenodd" clip-rule="evenodd" d="M14 13V16C14 16.55 13.55 17 13 17H11V12H13C13.55 12 14 12.45 14 13ZM12 13H13V16H12V13ZM17 15H16V17H15V12H17V13H16V14H17V15ZM8 15H9C9.55 15 10 14.55 10 14V13C10 12.45 9.55 12 9 12H7V17H8V15ZM9 13H8V14H9V13Z" fill="#505255"/>
</svg>
