<svg width="25" height="25" viewBox="0 0 25 25" fill="none" xmlns="http://www.w3.org/2000/svg">
<path fill-rule="evenodd" clip-rule="evenodd" d="M20.5019 12.0014C20.5019 12.3414 20.4719 12.6614 20.4319 12.9814L22.5417 14.6316C22.7317 14.7816 22.7817 15.0516 22.6617 15.2716L20.6614 18.7314C20.5714 18.8914 20.4014 18.9814 20.2314 18.9814C20.1714 18.9814 20.1114 18.9714 20.0514 18.9514L17.5615 17.9512C17.0414 18.3411 16.4814 18.6811 15.8714 18.931L15.4912 21.581C15.4611 21.821 15.2511 22.001 15.0011 22.001L11.0011 22.0006C10.7511 22.0006 10.5411 21.8206 10.5112 21.5806L10.1314 18.9306C9.5214 18.6805 8.96143 18.3505 8.44146 17.9504L5.95138 18.9502C5.90138 18.9702 5.84138 18.9802 5.78138 18.9802C5.60138 18.9802 5.43138 18.8902 5.3414 18.7302L3.34168 15.27C3.2217 15.05 3.27172 14.78 3.46173 14.63L5.57187 12.9802C5.5319 12.6602 5.50192 12.3302 5.50195 12.0002C5.50198 11.6702 5.532 11.3402 5.57203 11.0202L3.46216 9.37002C3.27218 9.22 3.2122 8.94999 3.34222 8.73001L5.3425 5.27017C5.43251 5.11018 5.60252 5.02019 5.77252 5.0202C5.83252 5.02021 5.89252 5.03021 5.95252 5.05022L8.44244 6.05042C8.96247 5.66047 9.5225 5.32051 10.1325 5.07056L10.5127 2.42059C10.5428 2.1806 10.7528 2.00061 11.0028 2.00063L15.0028 2.00096C15.2528 2.00098 15.4628 2.181 15.4927 2.421L15.8725 5.07103C16.4825 5.32108 17.0425 5.65113 17.5624 6.05117L20.0525 5.05138C20.1025 5.03138 20.1625 5.02138 20.2225 5.02139C20.4025 5.0214 20.5725 5.11142 20.6625 5.27143L22.6622 8.73159C22.7822 8.9516 22.7322 9.22159 22.5422 9.37158L20.432 11.0214C20.472 11.3414 20.502 11.6614 20.5019 12.0014ZM18.5019 12.0012C18.502 11.7912 18.492 11.5812 18.452 11.2712L18.3121 10.1412L19.2022 9.44131L20.2722 8.59139L19.5723 7.38134L18.3023 7.89123L17.2423 8.32115L16.3323 7.62107C15.9323 7.32104 15.5324 7.09101 15.1024 6.91097L14.0424 6.48088L13.8825 5.35087L13.6926 4.00085L12.3026 4.00074L12.1025 5.35072L11.9424 6.48071L10.8824 6.91062C10.4724 7.08059 10.0623 7.32056 9.63231 7.64052L8.73225 8.32045L7.69229 7.90036L6.42233 7.39026L5.72223 8.6002L6.80216 9.44029L7.6921 10.1404L7.55201 11.2704C7.52198 11.5703 7.50197 11.8003 7.50195 12.0003C7.50193 12.2003 7.52191 12.4303 7.55189 12.7404L7.6918 13.8704L6.80174 14.5703L5.72167 15.4102L6.42157 16.6203L7.69161 16.1104L8.75165 15.6804L9.66159 16.3805C10.0616 16.6806 10.4615 16.9106 10.8915 17.0906L11.9515 17.5207L12.1114 18.6507L12.3013 20.0007L13.7013 20.0009L13.9014 18.6509L14.0615 17.5209L15.1215 17.091C15.5315 16.921 15.9416 16.681 16.3716 16.3611L17.2716 15.6811L18.3116 16.1012L19.5816 16.6113L20.2817 15.4014L19.2017 14.5613L18.3118 13.8612L18.4519 12.7312C18.4819 12.4312 18.5019 12.2112 18.5019 12.0012ZM13.0023 8.0008C10.7923 8.00062 9.00213 9.79047 9.00195 12.0005C9.00177 14.2105 10.7916 16.0006 13.0016 16.0008C15.2116 16.001 17.0018 14.2111 17.0019 12.0011C17.0021 9.79113 15.2123 8.00098 13.0023 8.0008ZM11.0019 12.0006C11.0019 13.1006 11.9018 14.0007 13.0018 14.0008C14.1018 14.0009 15.0019 13.101 15.0019 12.001C15.002 10.901 14.1021 10.0009 13.0021 10.0008C11.9021 10.0007 11.002 10.9006 11.0019 12.0006Z" fill="#505255"/>
</svg>
