<svg width="25" height="25" viewBox="0 0 25 25" fill="none" xmlns="http://www.w3.org/2000/svg">
<path d="M23.9998 8.0018C23.9997 9.1018 23.0997 10.0017 21.9997 10.0016C21.8197 10.0016 21.6497 9.98161 21.4897 9.9316L17.9294 13.4813C17.9794 13.6413 17.9994 13.8213 17.9993 14.0013C17.9993 15.1013 17.0992 16.0012 15.9992 16.0011C14.8992 16.0011 13.9993 15.101 13.9993 14.001C13.9994 13.821 14.0194 13.641 14.0694 13.481L11.5196 10.9308C11.3596 10.9808 11.1796 11.0008 10.9996 11.0007C10.8196 11.0007 10.6396 10.9807 10.4796 10.9307L5.92922 15.4903C5.97921 15.6503 5.9992 15.8203 5.99918 16.0003C5.99909 17.1003 5.09902 18.0003 3.99902 18.0002C2.89902 18.0001 1.99909 17.1 1.99918 16C1.99927 14.9 2.89934 14.0001 3.99934 14.0002C4.17934 14.0002 4.34934 14.0202 4.50934 14.0702L9.06971 9.52058C9.01972 9.36058 8.99974 9.18057 8.99975 9.00057C8.99984 7.90057 9.89992 7.00065 10.9999 7.00074C12.0999 7.00083 12.9998 7.9009 12.9998 9.0009C12.9997 9.1809 12.9797 9.3609 12.9297 9.5209L15.4795 12.0711C15.6395 12.0211 15.8195 12.0011 15.9995 12.0011C16.1795 12.0012 16.3595 12.0212 16.5195 12.0712L20.0698 8.51148C20.0198 8.35148 19.9998 8.18148 19.9998 8.00148C19.9999 6.90148 20.9 6.00155 22 6.00164C23.1 6.00173 23.9999 6.9018 23.9998 8.0018Z" fill="#505255"/>
</svg>
